<svg width="79" height="64" viewBox="0 0 79 64" fill="none" xmlns="http://www.w3.org/2000/svg">
<path d="M78.7275 46.8237C78.9287 46.5623 79.0242 46.2346 78.9948 45.906C77.7202 35.0277 62.073 35.8914 61.9005 46.7579C61.4357 47.1871 60.9433 47.6782 60.5667 48.2154V42.7104C68.6142 36.0692 66.4549 28.7999 60.0243 23.8914C59.7993 23.7278 59.5283 23.6397 59.2501 23.6397C58.9719 23.6397 58.7009 23.7278 58.4759 23.8914C52.0216 28.8183 49.9057 36.0889 57.9334 42.7104V48.2154C57.5569 47.6782 57.0644 47.1871 56.601 46.7579C56.4272 35.8875 40.7799 35.0317 39.5054 45.906C39.4751 46.2351 39.5712 46.5617 39.7727 46.8237C42.5061 50.6223 49.5028 53.407 55.1974 49.0857C56.6576 50.4603 57.4805 52.5749 57.7386 53.9231H21.2617C21.5198 52.5775 22.344 50.4577 23.8029 49.0857C29.5106 53.4123 36.5047 50.6104 39.2276 46.8237C39.4288 46.5623 39.5243 46.2346 39.4949 45.906C38.2203 35.0277 22.5718 35.8914 22.4006 46.7579C21.9358 47.1871 21.4434 47.6782 21.0668 48.2154V42.7104C29.1143 36.0692 26.955 28.7999 20.5244 23.8914C20.2994 23.7278 20.0283 23.6397 19.7502 23.6397C19.472 23.6397 19.201 23.7278 18.976 23.8914C12.5217 28.8183 10.4058 36.0889 18.4335 42.7104V48.2154C18.0569 47.6782 17.5645 47.1871 17.101 46.7579C16.9272 35.8875 1.28001 35.0317 0.00547829 45.906C-0.024805 46.2351 0.0713116 46.5617 0.272761 46.8237C3.00616 50.6223 10.0029 53.407 15.6975 49.0857C17.1577 50.4603 17.9806 52.5749 18.2386 53.9231H4.60854C-1.46392 54.1088 -1.49552 62.9423 4.60854 63.1398H74.3917C80.4576 62.9555 80.501 54.1206 74.3917 53.9231H60.7616C61.0197 52.5775 61.8439 50.4577 63.3028 49.0857C69.0105 53.4123 76.0046 50.6104 78.7275 46.8237ZM69.9058 40.7512C72.8618 40.4023 75.8361 42.692 76.3022 45.6203C74.1982 48.2009 69.3331 49.9429 65.4871 47.3846C67.3699 46.3207 69.1948 46.0679 69.8782 46.0192C71.5991 45.8678 71.4213 43.299 69.6886 43.3938C68.7195 43.4622 66.8617 43.7427 64.8696 44.717C65.6135 42.5919 67.524 40.9738 69.9058 40.7512ZM48.622 46.0192C49.3066 46.0692 51.1302 46.3207 53.0131 47.3859C49.1631 49.9481 44.2888 48.1917 42.198 45.6216C43.2921 39.6439 51.6753 39.0119 53.6306 44.717C52.1207 43.9795 50.4863 43.5307 48.8116 43.3938C47.0815 43.2819 46.8998 45.8731 48.622 46.0192ZM30.4059 40.7526C33.3658 40.4023 36.3349 42.6907 36.8023 45.6203C34.7654 48.1417 29.7884 49.9574 25.9872 47.3846C27.87 46.3207 29.6949 46.0679 30.3783 46.0192C32.1005 45.8678 31.9214 43.299 30.1887 43.3938C29.2196 43.4622 27.3618 43.7427 25.3697 44.717C26.1136 42.5919 28.0241 40.9738 30.4059 40.7512V40.7526ZM9.12206 46.0192C9.80672 46.0692 11.6303 46.3207 13.5131 47.3859C9.66321 49.9481 4.78892 48.1917 2.69806 45.6216C3.79352 39.6439 12.1754 39.0119 14.1306 44.717C12.6208 43.9795 10.9864 43.5307 9.31166 43.3938C7.58024 43.2819 7.39986 45.8731 9.12206 46.0192ZM55.3001 33.5149C55.3001 30.5366 57.9084 27.8466 59.2501 26.6603C63.1922 30.0836 64.9828 34.4892 60.5667 39.0633V35.4898C60.5667 35.1406 60.428 34.8058 60.1811 34.5588C59.9342 34.3119 59.5993 34.1732 59.2501 34.1732C58.9009 34.1732 58.566 34.3119 58.3191 34.5588C58.0721 34.8058 57.9334 35.1406 57.9334 35.4898V39.0633C56.6694 37.6702 55.3001 35.6729 55.3001 33.5149ZM15.8002 33.5149C15.8002 30.5366 18.4085 27.8466 19.7502 26.6603C23.6923 30.0836 25.4829 34.4892 21.0668 39.0633V35.4898C21.0668 35.1406 20.9281 34.8058 20.6812 34.5588C20.4343 34.3119 20.0994 34.1732 19.7502 34.1732C19.401 34.1732 19.0661 34.3119 18.8191 34.5588C18.5722 34.8058 18.4335 35.1406 18.4335 35.4898V39.0633C17.1695 37.6702 15.8002 35.6729 15.8002 33.5149ZM74.3917 56.5565C76.9632 56.596 77.0066 60.4577 74.3917 60.5065H4.60854C2.03709 60.467 1.99364 56.6052 4.60854 56.5565H74.3917ZM39.5001 18.3732C44.5825 18.3732 48.7168 14.2389 48.7168 9.15657C48.2533 -3.05417 30.7443 -3.05022 30.2835 9.15657C30.2835 14.2389 34.4178 18.3732 39.5001 18.3732ZM39.5001 2.57326C43.1302 2.57326 46.0834 5.52653 46.0834 9.15657C45.774 17.8689 33.2249 17.8676 32.9168 9.15657C32.9168 5.52653 35.8701 2.57326 39.5001 2.57326Z" fill="#000080"/>
</svg>
