<svg width="73" height="73" viewBox="0 0 73 73" fill="none" xmlns="http://www.w3.org/2000/svg">
<g clip-path="url(#clip0_2_20)">
<path d="M19.2126 59.0448H3.4142C2.56557 59.0448 2.28118 59.0448 2.28118 57.5072V53.8496C2.28118 53.5471 2.16101 53.257 1.9471 53.0431C1.73319 52.8292 1.44307 52.709 1.14055 52.709C0.83804 52.709 0.547918 52.8292 0.334009 53.0431C0.1201 53.257 -7.23191e-05 53.5471 -7.23191e-05 53.8496V57.5072C-0.0860449 57.993 -0.0605768 58.4919 0.0744105 58.9664C0.209398 59.4409 0.450379 59.8785 0.779172 60.2462C1.10797 60.614 1.51599 60.9023 1.97245 61.0893C2.42891 61.2764 2.92189 61.3573 3.4142 61.326H19.2126C19.5151 61.326 19.8053 61.2059 20.0192 60.992C20.2331 60.778 20.3532 60.4879 20.3532 60.1854C20.3532 59.8829 20.2331 59.5928 20.0192 59.3789C19.8053 59.165 19.5151 59.0448 19.2126 59.0448ZM1.14055 50.2589C1.44307 50.2589 1.73319 50.1388 1.9471 49.9249C2.16101 49.7109 2.28118 49.4208 2.28118 49.1183V11.4138L36.8041 11.4731V30.4911C36.8041 30.7937 36.9243 31.0838 37.1382 31.2977C37.3521 31.5116 37.6422 31.6318 37.9447 31.6318C38.2472 31.6318 38.5374 31.5116 38.7513 31.2977C38.9652 31.0838 39.0853 30.7937 39.0853 30.4911V11.4731C39.091 10.8562 38.8515 10.2624 38.4194 9.82204C37.9874 9.38171 37.3982 9.13098 36.7813 9.12496H3.24843L8.46489 4.71454H41.6191C42.1031 4.71454 42.5673 4.90681 42.9095 5.24907C43.2518 5.59132 43.4441 6.05552 43.4441 6.53954V29.6866C43.4441 29.9891 43.5642 30.2793 43.7781 30.4932C43.992 30.7071 44.2822 30.8272 44.5847 30.8272C44.8872 30.8272 45.1773 30.7071 45.3912 30.4932C45.6051 30.2793 45.7253 29.9891 45.7253 29.6866V6.53954C45.7253 5.45049 45.2927 4.40605 44.5226 3.63598C43.7525 2.86591 42.7081 2.43329 41.6191 2.43329H8.04818C7.7787 2.43313 7.51789 2.5285 7.31209 2.70248L0.536782 8.4421C0.376608 8.60638 0.251406 8.80142 0.16874 9.01545C0.0628525 9.18553 0.00455357 9.38091 -7.23191e-05 9.58121V49.1229C0.00113458 49.4246 0.12184 49.7135 0.335618 49.9265C0.549396 50.1394 0.838829 50.2589 1.14055 50.2589Z" fill="white"/>
<path d="M41.2785 30.0836C41.581 30.0836 41.8712 29.9635 42.0851 29.7496C42.299 29.5357 42.4191 29.2455 42.4191 28.943V9.18587C42.4179 8.28742 42.0609 7.42602 41.4262 6.79015C40.7915 6.15428 39.9307 5.79571 39.0322 5.79289L10.5227 5.73358C10.2202 5.73358 9.93007 5.85375 9.71616 6.06766C9.50225 6.28157 9.38208 6.57169 9.38208 6.87421C9.38208 7.17672 9.50225 7.46684 9.71616 7.68075C9.93007 7.89466 10.2202 8.01483 10.5227 8.01483L39.0338 8.07414C39.3282 8.07495 39.6104 8.19238 39.8185 8.40074C40.0265 8.6091 40.1436 8.89141 40.144 9.18587V28.943C40.144 29.2445 40.2633 29.5337 40.4759 29.7474C40.6885 29.9612 40.9771 30.082 41.2785 30.0836ZM56.9887 51.7981C56.6862 51.7981 56.3961 51.9183 56.1822 52.1322C55.9683 52.3461 55.8481 52.6362 55.8481 52.9387V62.4226C55.8502 62.6453 55.798 62.865 55.696 63.0629C55.0542 64.2872 52.0126 68.2855 39.8459 68.2855C27.6792 68.2855 24.6376 64.2917 23.9882 63.066C23.8864 62.8685 23.8342 62.6493 23.8361 62.4272V53.4224C23.8361 53.1198 23.7159 52.8297 23.502 52.6158C23.2881 52.4019 22.998 52.2817 22.6955 52.2817C22.3929 52.2817 22.1028 52.4019 21.8889 52.6158C21.675 52.8297 21.5548 53.1198 21.5548 53.4224V62.4226C21.5517 63.0145 21.6915 63.5983 21.9624 64.1245C22.9875 66.0605 26.7667 70.5667 39.8459 70.5667C52.9251 70.5667 56.7028 66.065 57.7202 64.1305C57.9934 63.6045 58.1343 63.0199 58.1309 62.4272V52.9387C58.1309 52.7888 58.1013 52.6404 58.0439 52.5019C57.9865 52.3634 57.9023 52.2376 57.7963 52.1316C57.6902 52.0257 57.5643 51.9417 57.4257 51.8845C57.2871 51.8273 57.1386 51.7979 56.9887 51.7981Z" fill="white"/>
<path d="M72.2197 42.0343L42.0434 31.9542C41.813 31.8767 41.5635 31.8767 41.3331 31.9542L7.34099 42.8525C7.11402 42.9272 6.91619 43.0712 6.77536 43.2643C6.63453 43.4573 6.55779 43.6896 6.55594 43.9286C6.5541 44.1675 6.62724 44.401 6.76507 44.5962C6.90289 44.7914 7.09847 44.9385 7.32426 45.0167L39.1097 55.7598C39.2273 55.7996 39.3505 55.8201 39.4747 55.8206C39.6053 55.8204 39.7349 55.7978 39.8579 55.7537L63.189 47.4226V52.8976C62.4026 53.1351 61.7131 53.6188 61.2222 54.2775C60.7313 54.9363 60.4649 55.7352 60.4622 56.5567V58.8562C60.4622 59.8759 60.8672 60.8538 61.5883 61.5748C62.3093 62.2958 63.2872 62.7009 64.3068 62.7009C65.3265 62.7009 66.3044 62.2958 67.0254 61.5748C67.7465 60.8538 68.1515 59.8759 68.1515 58.8562V56.5537C68.1494 55.7396 67.8885 54.9472 67.4066 54.2911C66.9246 53.635 66.2465 53.1491 65.4703 52.9037V46.6074L72.2395 44.1908C72.4631 44.1111 72.6563 43.9636 72.792 43.7688C72.9278 43.5741 72.9994 43.3418 72.9969 43.1044C72.9944 42.8671 72.9179 42.6364 72.778 42.4445C72.6382 42.2527 72.4419 42.1093 72.2167 42.0343H72.2197ZM65.8642 58.8562C65.8642 59.2709 65.6995 59.6685 65.4063 59.9617C65.1131 60.2549 64.7154 60.4197 64.3008 60.4197C63.8861 60.4197 63.4885 60.2549 63.1953 59.9617C62.9021 59.6685 62.7373 59.2709 62.7373 58.8562V56.5537C62.7373 56.3484 62.7778 56.1451 62.8564 55.9554C62.9349 55.7657 63.0501 55.5934 63.1953 55.4482C63.3404 55.303 63.5128 55.1879 63.7025 55.1093C63.8921 55.0307 64.0954 54.9903 64.3008 54.9903C64.5061 54.9903 64.7094 55.0307 64.8991 55.1093C65.0887 55.1879 65.2611 55.303 65.4063 55.4482C65.5514 55.5934 65.6666 55.7657 65.7452 55.9554C65.8237 56.1451 65.8642 56.3484 65.8642 56.5537V58.8562ZM64.1669 44.6517L39.9659 42.0404C39.8151 42.0205 39.6618 42.031 39.5151 42.0712C39.3684 42.1114 39.2313 42.1806 39.1117 42.2746C38.9921 42.3686 38.8926 42.4856 38.8189 42.6187C38.7452 42.7518 38.6989 42.8983 38.6827 43.0495C38.6664 43.2008 38.6806 43.3537 38.7244 43.4994C38.7682 43.6451 38.8406 43.7805 38.9375 43.8978C39.0344 44.0151 39.1538 44.1117 39.2886 44.1822C39.4234 44.2526 39.571 44.2954 39.7226 44.3079L59.2333 46.4128L39.4625 53.4755L11.3362 43.9673L41.6738 34.2339L68.3659 43.1506L64.1669 44.6517Z" fill="white"/>
</g>
<defs>
<clipPath id="clip0_2_20">
<rect width="73" height="73" fill="white"/>
</clipPath>
</defs>
</svg>
